<svg xmlns="http://www.w3.org/2000/svg" viewBox="0 0 605.23 165"><path d="M572.1 94.43c2.83-4.67 3.32-12 .31-16.59a11.67 11.67 0 0 0-11.84-5.49c-8.78 1.5-16.2 6.46-24 10.3-7.42 4.06-15.8 11.46-24.77 6.23-5.1-3.88-7.59-9.56-6.62-15.88a3.8 3.8 0 0 0-2.9-1 12.11 12.11 0 0 0-10.38 6c-4.56 8-2.6 19.17-.45 27.77 3 9.84 7.72 19.29 15.89 26.71 3.06 2.71 8.1 3 12 1.73a90.92 90.92 0 0 0 31.15-16.11A87.65 87.65 0 0 0 567 102.43a65.82 65.82 0 0 0 5.15-8m32.07-3a81.69 81.69 0 0 1-3.66 11.38c-3.4 8.76-8.91 16.67-15.09 24.23a135.16 135.16 0 0 1-23.83 21 106.5 106.5 0 0 1-35.12 15.72c-8.53 1.81-18.31 1.91-26.22-1.63-5.51-2-10.35-5.93-14.88-9.95a62.41 62.41 0 0 1-11.45-14.57c-.25-.43-.87-.27-1.14-.07a237.21 237.21 0 0 1-26.09 9.62c-8.92 2.78-20 2-26.24-5.59-1-1.08-1.6-2.36-2.48-3.27a2.84 2.84 0 0 0-1 .09c-8.6 3.44-17.16 7-26.32 9a25.72 25.72 0 0 1-19.7-3.51c-2.82-2.31-5.3-5-6.37-8.18-2-5.36-1.55-11.17-1.48-16.82.27-9.2 1.26-18.37 1.53-27.77a3.37 3.37 0 0 0-2.12-3.26c-1.9-.66-4.25-.29-6.25-.09-1.33.22-2.81.22-4.13.49-.23 0-.29.16-.41.38-4.09 15.15-8.77 30.18-16.67 43.8-3.91 6.59-10.54 14.74-18.46 16.11-10.29 2.18-17.62-7.72-22.75-15.09-3.48-4.91-6.75-10-10.38-14.83-.8-.75-1.46-1.54-2.51-1.15a6.35 6.35 0 0 0-2.81 2.69c-5.7 8.84-10.7 17.92-16.68 26.6a5.93 5.93 0 0 1-4.52 2c-2.12-.13-3.66-2-4.63-3.78-5-8.67-9.36-17.64-13.89-26.63-.69-.85-1.41-2-2.76-1.67a7.45 7.45 0 0 0-2.8 2.66c-6.83 8.64-12.58 17.9-20.12 26.21-2.19 2.22-5.29 4-8.4 2.93-6.64-2.84-9.21-10.14-13.47-15.23-1.38-1.81-2.21-4-4.15-5.44-1.74-.6-2.73 1.54-3.95 2.56-5.49 6.5-11.87 13.15-19.44 16.73-10.17 4.06-21.9 1-29.68-6.14-6-6.61-8.83-14.57-9.72-23.36a76.3 76.3 0 0 1 4.92-31.77c4.75-12.35 13.41-25 25.68-32 11.44-7 29.46-7.53 41-.22 5 3.1 8 8.33 7.1 14.3-.45 5.1-4 10.58-9 12.22-7.27 1.74-12.24-3.37-18.84-3.93-7.43-1.1-13.35 4.8-16.84 10.63-4.28 7.2-7.35 15.22-7.06 24.08.42 2.49 1.33 5.24 3.93 6.32a5.94 5.94 0 0 0 5-.15 89.59 89.59 0 0 0 13-14.29c3.48-4.14 6.46-9.23 11.2-12.24a7.65 7.65 0 0 1 7 .29c4 2.34 6 6.55 8.64 10 1.82 2.25 3 5.33 5.89 6.39 1.6 0 2.57-1.39 3.79-2.31 8-9.79 15.46-19.89 23.58-29.7 2.26-2.64 5.31-5.45 9.1-4.58a11.05 11.05 0 0 1 5.64 4.86c3.74 6 7 12.23 10.77 18.32a2.77 2.77 0 0 0 2 1.44c1.15 0 1.8-1.19 2.58-1.83 5.75-7.06 9.46-15.09 16.36-21.39a6.58 6.58 0 0 1 6.63-1c4.19 2.27 6.16 6.92 9 10.49 6.12 8.83 10.95 18 17.65 26.52.74.57 1.45 1.26 2.53 1 2.38-1.18 3.22-4 4.54-6.07a66.44 66.44 0 0 0 6-17.55.9.9 0 0 0-.77-1 19.07 19.07 0 0 1-10.71-18.53 18.37 18.37 0 0 1 10.8-15.52c6.5-2.78 15.1-2.37 20.74 2 2.78 2.07 4.28 5.15 5.53 8.18a1 1 0 0 0 .36.26c9.55-.38 18.71-1.34 28.36-.56a15.57 15.57 0 0 1 12 8.55c1.93 5 1.12 10.48 1.12 16-.4 8.3-1 16.51-1.28 24.88.32.54 0 1.44.27 2.12a4.38 4.38 0 0 0 1.38 3.07c1.76 1.19 4.15.77 6 .19a87.62 87.62 0 0 0 13.05-6c0-.08.32-.32.32-.49.05-13.51-.32-27.08 2.09-40 .63-4.38 4.55-8.67 8.93-9.45 5.59-1.36 11.56-.78 15.64 3.07 2.42 2.34 3 5.41 3.39 8.5 0 13-1 25.85-.75 39 .06 2.12.59 4.32 2.48 5.49 2.51 1.16 5.22-.21 7.6-.85 3.14-1.46 6.58-2.36 9.26-4.64-2-12.15-3.25-26.06 0-38 2.3-11.4 11-22.39 21.71-27.71 8.42-4.52 20.18-4.81 29.19-1.14a46.8 46.8 0 0 1 12.29 6.84 1.35 1.35 0 0 0 1 0c16-7.71 36.07-16 54.37-7.71 14.58 6.66 24.88 21.61 25.1 37.6a80.35 80.35 0 0 1-1.05 11.77" style="fill:#f385a0"/><path d="M439.91 49.1c-5.47 3.3-13.78 3.86-19.38.66-5.37-2.91-9.46-8.39-9.24-14.55-.22-6.29 4-11.77 9.24-14.65 6.19-3.19 15.12-3.31 20.72 1.26a16.21 16.21 0 0 1 6.4 17.65 18 18 0 0 1-7.74 9.63M117.21 38a14 14 0 0 1-15.44-.08c-3.64-2.7-6.92-6.7-11.17-8.32-9.22-4.52-20.51-1.16-29.6 1.4a47.93 47.93 0 0 0-20.28 12c-1.48 1.85-2.83 3.86-2.07 6.31.59 2.46 3.24 3.73 5.2 4.88 3.65 2.1 7.63 3.44 11.56 5 10.32 4 20.93 7.7 31.24 11.71 8.32 4 17.29 7.32 23.47 15.15a30 30 0 0 1 5.36 24c-1.6 15.6-14.72 29.16-28.08 36.71-9.69 6.1-20.77 8.87-32.56 10.05-11.16.44-22.26-.91-32.07-4.5-7.72-3-15.66-9.18-19.5-16.92-3.4-6.74-4.9-16.28-.66-23.13 4.11-7.6 12.44-11.13 20.7-10.21 4.27.66 8.59 3.14 10.23 7.32 2.29 4-.17 9.74 2.14 13.66 4.1 7.67 13.4 7.18 21.1 6.71 11.17-2 22.45-7.44 28.36-18.1 1.35-2.55 2.2-6.26.25-8.93-3.93-4.64-9.68-5.76-14.74-8.09-12.81-4.43-25.55-9.3-38.3-13.82-11.48-4.2-26.53-12-28-26-2.3-14.9 6.94-27.44 19-35.14A121.55 121.55 0 0 1 74.38.68C90.31-1.23 107.05.5 119 10.66a18 18 0 0 1 5.24 19.15 16.69 16.69 0 0 1-7.03 8.19" style="fill:#f385a0"/></svg>