<svg xmlns="http://www.w3.org/2000/svg"  viewBox="0 0 48 48" width="48px" height="48px" baseProfile="basic"><path fill="#010101" d="M21.708,38.885c-1.131,0-2.246-0.04-3.256-0.137c-2.648-0.255-4.3-0.931-6.392-1.785	c-6.053-2.475-8.529-7.611-6.794-14.092c0.061-0.227,0.136-0.584,0.221-0.984c0.187-0.886,0.398-1.89,0.622-2.382l0.077-0.169	c0.271-0.589,0.281-0.611,0.083-1.14c-1.16-3.1-1.179-5.703-0.056-7.737c0.68-1.231,1.385-1.649,2.771-1.662	c1.851,0.005,3.365,0.604,4.968,1.239l0.387,0.152c1.028,0.405,2.099,0.097,3.232-0.23c0.302-0.088,0.601-0.174,0.894-0.245	c2.928-0.711,6.016-0.787,8.933-0.22c0.181,0.035,0.336,0.063,0.44,0.043c0.091-0.02,0.205-0.092,0.315-0.161	c0.407-0.254,0.815-0.521,1.228-0.79c2.116-1.385,4.305-2.816,6.925-2.948c1.757-0.08,3.072,1.138,3.539,3.194	c0.588,2.594,0.334,5.306,0.109,7.699c-0.013,0.136-0.026,0.276-0.003,0.372c0.028,0.116,0.12,0.244,0.217,0.38	c1.391,1.949,2.25,4.178,2.504,6.468c0.472,4.268-1.393,8.208-5.247,11.097c-2.616,1.962-6.05,3.306-9.42,3.687	C26.332,38.722,23.988,38.885,21.708,38.885z M8.961,9.797c-0.983,0-1.371,0.238-1.872,1.146c-0.989,1.792-0.95,4.05,0.118,6.904	c0.33,0.882,0.212,1.203-0.112,1.907L7.02,19.918c-0.178,0.393-0.396,1.423-0.554,2.176c-0.089,0.421-0.169,0.797-0.232,1.035	c-1.614,6.028,0.59,10.612,6.206,12.908c2.015,0.824,3.606,1.475,6.108,1.715c2.972,0.286,6.892,0.063,9.346-0.213	c3.197-0.361,6.453-1.635,8.932-3.493c3.561-2.667,5.283-6.285,4.853-10.187c-0.234-2.12-1.032-4.186-2.308-5.974	c-0.149-0.21-0.316-0.443-0.391-0.746l-0.001-0.002c-0.062-0.257-0.039-0.503-0.021-0.7c0.218-2.319,0.465-4.947-0.088-7.386	c-0.134-0.591-0.723-2.522-2.514-2.417c-2.35,0.118-4.423,1.475-6.428,2.786c-0.418,0.273-0.832,0.545-1.245,0.802	c-0.165,0.104-0.372,0.234-0.634,0.29c-0.307,0.067-0.595,0.011-0.826-0.034c-2.792-0.542-5.732-0.471-8.522,0.207	c-0.28,0.067-0.565,0.149-0.853,0.232c-1.186,0.344-2.527,0.733-3.876,0.201l-0.389-0.153c-1.513-0.599-2.941-1.165-4.603-1.169	C8.975,9.797,8.968,9.797,8.961,9.797z"/><path fill="#010101" d="M1.75,28.75c-0.266,0-0.486-0.208-0.499-0.477c-0.014-0.275,0.199-0.51,0.476-0.522	c1.217-0.059,2.287-0.256,3.322-0.447c1.183-0.219,2.3-0.426,3.566-0.426c0.004,0,0.007,0,0.01,0c0.276,0,0.5,0.225,0.5,0.5	c0,0.276-0.224,0.5-0.5,0.5l0,0c-0.003,0-0.006,0-0.009,0c-1.176,0-2.25,0.198-3.386,0.408c-1.067,0.198-2.172,0.402-3.457,0.463	C1.766,28.75,1.758,28.75,1.75,28.75z"/><path fill="#010101" d="M3.875,33c-0.169,0-0.335-0.086-0.429-0.242c-0.142-0.236-0.065-0.544,0.171-0.687	c1.44-0.866,3.225-1.478,5.303-1.814c0.266-0.047,0.53,0.141,0.573,0.413c0.045,0.272-0.141,0.529-0.413,0.573	c-1.952,0.317-3.616,0.885-4.947,1.686C4.052,32.977,3.963,33,3.875,33z"/><path fill="#010101" d="M5.75,37.757c-0.127,0-0.254-0.048-0.352-0.145c-0.196-0.193-0.198-0.511-0.004-0.707	c1.673-1.693,3.853-2.811,5.765-3.725c0.248-0.119,0.548-0.015,0.667,0.235c0.119,0.249,0.014,0.548-0.235,0.667	c-1.836,0.878-3.926,1.946-5.485,3.525C6.008,37.707,5.879,37.757,5.75,37.757z"/><path fill="#ed488b" d="M35.875,14.506c0,1.933-2.067,3.619-4,3.619s-3-1.686-3-3.619s1.567-3.5,3.5-3.5	S35.875,12.573,35.875,14.506z"/><path fill="#ed488b" d="M32.125,11.381c0,0-1-4.875-4.875-5.375c0,0-2.375-0.375-4.25,4.625c0,0-1.5,4.625,1.5,6	c0,0,2,0.75,5.75-1.125L32.125,11.381z"/><path fill="#ed488b" d="M34.5,12.631c0.222-0.614,3.021-1.006,3.542-0.995c5.833,0.114,4.208,7.739,0.094,8.663	c-1.178,0.265-2.431,0.3-3.408-0.428c-0.467-0.348-2.099-2.066-1.853-2.739C32.875,17.131,34.5,12.632,34.5,12.631z"/><path fill="#010101" d="M39.378,24.753c-0.15,0-0.299-0.066-0.396-0.194c-0.167-0.217-0.131-0.524,0.084-0.694	c0.077-0.062,1.979-1.501,7.616-0.854c0.274,0.032,0.472,0.28,0.44,0.554c-0.031,0.274-0.3,0.474-0.554,0.44	c-5.157-0.596-6.873,0.638-6.89,0.649C39.589,24.721,39.483,24.753,39.378,24.753z"/><path fill="#010101" d="M44.99,28.525c-0.896,0-1.677-0.105-2.437-0.208c-0.693-0.094-1.349-0.182-2.057-0.186	c-0.275-0.001-0.498-0.227-0.497-0.503c0.001-0.274,0.225-0.497,0.5-0.497c0.001,0,0.002,0,0.003,0	c0.772,0.004,1.49,0.101,2.185,0.194c0.895,0.122,1.821,0.245,2.908,0.182c0.261-0.028,0.512,0.194,0.528,0.47	s-0.194,0.512-0.47,0.528C45.426,28.52,45.205,28.525,44.99,28.525z"/><path fill="#010101" d="M44.875,33.632c-0.081,0-0.162-0.02-0.238-0.061c-0.743-0.402-1.564-0.565-2.434-0.738	c-1.162-0.23-2.363-0.47-3.498-1.297c-0.223-0.163-0.271-0.476-0.109-0.699c0.164-0.223,0.478-0.271,0.699-0.109	c0.956,0.698,1.999,0.905,3.103,1.125c0.904,0.18,1.839,0.365,2.716,0.84c0.242,0.131,0.333,0.435,0.201,0.678	C45.225,33.537,45.052,33.632,44.875,33.632z"/><path fill="#010101" d="M16.013,28.011C16.019,28.884,15.475,30,14.5,30c-1.391,0-1.729-1.692-1.338-2.754	c0.662-1.801,2.669-1.139,2.842,0.587C16.009,27.891,16.012,27.95,16.013,28.011z"/><path fill="#010101" d="M35,26.989c0,0.77-0.362,1.726-1.184,1.937c-1.682,0.43-2.124-1.965-1.551-3.069	C33.197,24.061,35,25.473,35,26.989z"/><path fill="#febf10" d="M24.686,32.253c-0.12,0.007-0.236,0.006-0.348-0.003c-0.761-0.061-1.722-0.471-2.009-1.233 c-0.686-1.821,1.913-2.488,3.16-2.18C28.028,29.463,26.737,32.134,24.686,32.253z"/><path fill="#010101" d="M24.531,32.758c-0.079,0-0.156-0.003-0.231-0.01c-0.951-0.075-2.073-0.585-2.438-1.554 c-0.27-0.716-0.158-1.401,0.312-1.931c0.767-0.863,2.392-1.17,3.438-0.912c1.204,0.298,1.868,1.07,1.776,2.066 c-0.111,1.208-1.31,2.255-2.671,2.334h-0.001C24.652,32.756,24.592,32.758,24.531,32.758z M24.835,29.265 c-0.69,0-1.534,0.235-1.914,0.663c-0.225,0.252-0.264,0.543-0.124,0.914c0.198,0.524,0.963,0.86,1.582,0.91 c0.087,0.007,0.181,0.006,0.278,0.002l0,0c0.949-0.056,1.676-0.797,1.733-1.428c0.057-0.607-0.523-0.881-1.021-1.004 C25.214,29.283,25.03,29.265,24.835,29.265z"/><path fill="#010101" d="M32.172,18.279c-0.97,0-1.923-0.272-2.636-0.804c-0.965-0.719-1.375-1.805-1.153-3.057	c0.319-1.81,1.207-3.037,2.565-3.55c1.198-0.452,2.505-0.329,3.587,0.337c1.028,0.633,1.691,1.682,1.817,2.875	c0.015,0.14,0.022,0.281,0.022,0.426c0,1.456-0.718,2.618-2.022,3.273C33.687,18.115,32.924,18.279,32.172,18.279z M32.407,11.601	c-0.371,0-0.745,0.067-1.105,0.204c-1.276,0.481-1.757,1.782-1.935,2.788c-0.154,0.873,0.11,1.593,0.767,2.081	c0.963,0.716,2.583,0.81,3.771,0.213c0.671-0.337,1.471-1.023,1.471-2.38c0-0.109-0.006-0.216-0.017-0.321	c-0.094-0.883-0.585-1.658-1.348-2.129C33.521,11.755,32.967,11.601,32.407,11.601z"/><path fill="#010101" d="M25.861,17.347c-0.542,0-1.078-0.097-1.602-0.332c-1.264-0.57-2.076-1.935-2.176-3.649l-0.009-0.158	c-0.146-2.519-0.263-4.508,3.698-7.368c0.751-0.543,1.605-0.678,2.467-0.39c1.973,0.659,3.668,3.47,4.192,5.161	c0.082,0.265-0.065,0.544-0.329,0.626c-0.266,0.086-0.544-0.066-0.626-0.329c-0.481-1.554-1.984-3.985-3.555-4.51	c-0.562-0.187-1.071-0.104-1.563,0.252c-3.517,2.539-3.43,4.03-3.286,6.5l0.009,0.158c0.029,0.5,0.229,2.182,1.589,2.795	c1.233,0.556,2.654,0.063,3.891-0.44c0.252-0.105,0.547,0.018,0.651,0.274c0.104,0.255-0.019,0.547-0.274,0.651	C27.935,16.997,26.89,17.347,25.861,17.347z"/><path fill="#010101" d="M37.146,21.256c-0.232,0-0.465-0.02-0.695-0.06c-1.487-0.258-2.816-1.342-3.646-2.975	c-0.126-0.246-0.027-0.547,0.219-0.672c0.245-0.125,0.548-0.027,0.672,0.219c0.686,1.35,1.752,2.239,2.925,2.442	c1.123,0.191,2.255-0.222,3.286-1.199c1.035-0.98,1.59-2.232,1.562-3.523c-0.024-1.122-0.497-2.162-1.295-2.854	c-1.203-1.042-3.719-0.245-4.744,0.146c-0.257,0.099-0.547-0.03-0.646-0.288s0.03-0.547,0.288-0.646	c1.484-0.568,4.201-1.317,5.757,0.031c1.011,0.876,1.608,2.184,1.64,3.587c0.034,1.577-0.631,3.095-1.874,4.272	C39.545,20.731,38.343,21.256,37.146,21.256z"/><path fill="#010101" d="M6.375,20.551c-0.066,0-0.133-0.013-0.197-0.04c-0.254-0.109-0.371-0.403-0.263-0.657	c0.778-1.813,2.527-3.626,2.602-3.702c0.192-0.198,0.509-0.202,0.707-0.01c0.197,0.192,0.202,0.509,0.01,0.707	c-0.017,0.018-1.695,1.757-2.398,3.399C6.753,20.438,6.568,20.551,6.375,20.551z"/><path fill="#010101" d="M28.391,14.528c-0.433,0-0.889-0.117-1.318-0.342c-0.375-0.197-0.667-0.442-0.869-0.729	c-0.619-0.88-0.705-1.819-0.234-2.576c0.541-0.868,1.699-1.327,2.882-1.143c0.635,0.099,1.11,0.391,1.339,0.823	c0.08,0.152,0.124,0.309,0.163,0.446c0.025,0.089,0.063,0.222,0.092,0.256c0.246,0.125,0.336,0.42,0.212,0.666	c-0.126,0.247-0.436,0.337-0.681,0.214c-0.397-0.201-0.51-0.6-0.585-0.863c-0.028-0.099-0.055-0.192-0.086-0.252	c-0.074-0.142-0.302-0.254-0.608-0.302c-0.764-0.12-1.558,0.166-1.878,0.683c-0.323,0.52-0.068,1.087,0.203,1.472	c0.109,0.156,0.282,0.297,0.515,0.419c0.374,0.195,0.761,0.271,1.094,0.205c0.267-0.049,0.534,0.124,0.586,0.396	c0.052,0.271-0.125,0.533-0.396,0.586C28.681,14.515,28.537,14.528,28.391,14.528z"/><path fill="#010101" d="M36.438,17.872c-0.119,0-0.245-0.007-0.379-0.021c-0.66-0.071-1.204-0.473-1.386-1.022	c-0.087-0.263,0.056-0.545,0.317-0.632c0.266-0.09,0.545,0.056,0.632,0.317c0.057,0.171,0.285,0.314,0.544,0.343	c0.535,0.062,0.926-0.049,1.108-0.297c0.206-0.28,0.186-0.774-0.054-1.322c-0.038-0.087-0.097-0.21-0.172-0.279	c-0.187-0.175-0.585-0.137-0.99-0.071c-0.269,0.053-0.529-0.139-0.574-0.412c-0.045-0.272,0.14-0.529,0.412-0.574	c0.44-0.073,1.259-0.208,1.832,0.324c0.213,0.196,0.335,0.444,0.409,0.613c0.389,0.891,0.368,1.734-0.058,2.313	C37.874,17.435,37.397,17.872,36.438,17.872z"/></svg>