<?xml version="1.0" encoding="UTF-8" standalone="no"?>
<!-- Created with Inkscape (http://www.inkscape.org/) -->

<svg
   xmlns:dc="http://purl.org/dc/elements/1.1/"
   xmlns:cc="http://creativecommons.org/ns#"
   xmlns:rdf="http://www.w3.org/1999/02/22-rdf-syntax-ns#"
   xmlns:svg="http://www.w3.org/2000/svg"
   xmlns="http://www.w3.org/2000/svg"
   xmlns:sodipodi="http://sodipodi.sourceforge.net/DTD/sodipodi-0.dtd"
   xmlns:inkscape="http://www.inkscape.org/namespaces/inkscape"
   width="1000"
   height="273.36176"
   id="svg5637"
   version="1.1"
   inkscape:version="0.48.2 r9819"
   sodipodi:docname="Sanrio.svg">
  <defs
     id="defs5639" />
  <sodipodi:namedview
     id="base"
     pagecolor="#ffffff"
     bordercolor="#666666"
     borderopacity="1.0"
     inkscape:pageopacity="0.0"
     inkscape:pageshadow="2"
     inkscape:zoom="0.37219781"
     inkscape:cx="292.45192"
     inkscape:cy="127.72583"
     inkscape:document-units="px"
     inkscape:current-layer="layer1"
     showgrid="false"
     fit-margin-left="0.5"
     fit-margin-bottom="0.5"
     fit-margin-top="0.5"
     fit-margin-right="0.5"
     inkscape:window-width="1058"
     inkscape:window-height="969"
     inkscape:window-x="858"
     inkscape:window-y="-21"
     inkscape:window-maximized="0" />
  <metadata
     id="metadata5642">
    <rdf:RDF>
      <cc:Work
         rdf:about="">
        <dc:format>image/svg+xml</dc:format>
        <dc:type
           rdf:resource="http://purl.org/dc/dcmitype/StillImage" />
      </cc:Work>
    </rdf:RDF>
  </metadata>
  <g
     inkscape:label="Layer 1"
     inkscape:groupmode="layer"
     id="layer1"
     transform="translate(-353.85347,186.84709)">
    <g
       id="g3839"
       transform="matrix(19.071271,0,0,-19.071271,1298.6866,-30.466808)"
       style="fill:#000000">
      <path
         d="M 0,0 C 0.245,0.405 0.286,1.038 0.026,1.437 -0.198,1.8 -0.597,1.974 -0.999,1.911 -1.758,1.782 -2.4,1.353 -3.079,1.02 -3.722,0.668 -4.446,0.028 -5.222,0.481 c -0.438,0.34 -0.654,0.828 -0.57,1.372 -0.07,0.07 -0.156,0.082 -0.252,0.082 -0.353,0.01 -0.709,-0.199 -0.898,-0.515 -0.395,-0.692 -0.225,-1.659 -0.039,-2.403 0.263,-0.853 0.668,-1.67 1.375,-2.313 0.265,-0.233 0.701,-0.257 1.039,-0.149 0.964,0.291 1.879,0.735 2.698,1.394 0.526,0.391 1.011,0.84 1.424,1.36 C -0.271,-0.464 -0.132,-0.231 0,0 M 2.774,0.261 C 2.699,-0.081 2.579,-0.407 2.458,-0.725 2.163,-1.482 1.687,-2.167 1.151,-2.821 c -0.613,-0.698 -1.316,-1.295 -2.062,-1.82 -0.943,-0.631 -1.943,-1.103 -3.038,-1.36 -0.739,-0.157 -1.585,-0.165 -2.27,0.142 -0.477,0.175 -0.895,0.511 -1.288,0.861 -0.411,0.373 -0.721,0.809 -0.99,1.26 -0.024,0.038 -0.075,0.024 -0.099,0.006 -0.735,-0.33 -1.494,-0.591 -2.258,-0.833 -0.772,-0.241 -1.729,-0.17 -2.272,0.484 -0.086,0.094 -0.139,0.205 -0.215,0.283 -0.039,0 -0.072,0 -0.087,-0.009 -0.745,-0.297 -1.485,-0.607 -2.278,-0.776 -0.602,-0.131 -1.229,-0.017 -1.701,0.303 -0.244,0.199 -0.459,0.433 -0.551,0.708 -0.17,0.464 -0.135,0.968 -0.128,1.456 0.024,0.797 0.108,1.591 0.133,2.403 -0.005,0.118 -0.06,0.241 -0.185,0.281 -0.164,0.059 -0.366,0.026 -0.54,0.009 -0.116,-0.018 -0.243,-0.018 -0.358,-0.042 -0.02,0 -0.026,-0.014 -0.035,-0.033 -0.354,-1.312 -0.758,-2.611 -1.442,-3.79 -0.34,-0.571 -0.913,-1.277 -1.598,-1.395 -0.891,-0.189 -1.527,0.668 -1.97,1.305 -0.3,0.426 -0.584,0.863 -0.898,1.284 -0.069,0.066 -0.127,0.133 -0.217,0.1 -0.108,-0.038 -0.182,-0.143 -0.242,-0.233 -0.494,-0.765 -0.928,-1.55 -1.446,-2.302 -0.101,-0.116 -0.242,-0.17 -0.39,-0.17 -0.184,0.011 -0.317,0.173 -0.401,0.326 -0.435,0.751 -0.809,1.527 -1.203,2.305 -0.059,0.074 -0.121,0.174 -0.237,0.144 -0.106,-0.044 -0.179,-0.144 -0.243,-0.229 -0.592,-0.748 -1.088,-1.549 -1.742,-2.269 -0.19,-0.192 -0.458,-0.349 -0.727,-0.254 -0.574,0.246 -0.797,0.878 -1.166,1.319 -0.119,0.157 -0.192,0.345 -0.359,0.471 -0.151,0.051 -0.237,-0.134 -0.341,-0.222 -0.476,-0.563 -1.028,-1.138 -1.683,-1.449 -0.881,-0.35 -1.896,-0.088 -2.568,0.533 -0.524,0.572 -0.766,1.261 -0.841,2.021 -0.05,0.98 0.095,1.915 0.425,2.75 0.41,1.068 1.16,2.163 2.222,2.767 0.991,0.604 2.549,0.651 3.546,0.017 0.433,-0.267 0.695,-0.719 0.614,-1.236 -0.039,-0.442 -0.343,-0.917 -0.781,-1.058 -0.629,-0.151 -1.059,0.291 -1.631,0.339 -0.636,0.097 -1.149,-0.415 -1.456,-0.918 -0.369,-0.624 -0.634,-1.317 -0.61,-2.085 0.035,-0.215 0.115,-0.452 0.34,-0.547 0.135,-0.068 0.306,-0.043 0.43,0.013 0.423,0.358 0.79,0.802 1.123,1.236 0.3,0.36 0.558,0.8 0.97,1.061 0.184,0.085 0.434,0.085 0.609,-0.025 0.342,-0.203 0.518,-0.568 0.747,-0.868 0.158,-0.195 0.259,-0.462 0.509,-0.553 0.139,0 0.223,0.121 0.329,0.2 0.69,0.847 1.337,1.722 2.041,2.571 0.196,0.227 0.46,0.471 0.787,0.396 0.203,-0.07 0.367,-0.226 0.488,-0.42 0.325,-0.519 0.607,-1.06 0.934,-1.587 0.042,-0.059 0.097,-0.124 0.173,-0.124 0.1,0 0.157,0.102 0.225,0.158 0.498,0.61 0.819,1.306 1.416,1.851 0.147,0.138 0.391,0.154 0.572,0.084 0.364,-0.196 0.534,-0.599 0.784,-0.908 0.529,-0.763 0.947,-1.561 1.528,-2.295 0.063,-0.049 0.126,-0.109 0.218,-0.085 0.207,0.102 0.279,0.343 0.394,0.526 0.248,0.473 0.413,0.988 0.523,1.519 0.009,0.045 -0.033,0.078 -0.068,0.086 -0.609,0.292 -0.966,0.922 -0.926,1.604 0.032,0.564 0.405,1.124 0.934,1.343 0.564,0.24 1.307,0.205 1.796,-0.17 0.239,-0.181 0.37,-0.447 0.477,-0.71 0.006,-0.005 0.02,-0.019 0.032,-0.022 0.827,0.032 1.619,0.115 2.455,0.048 0.431,-0.048 0.84,-0.335 1.035,-0.74 0.168,-0.431 0.098,-0.906 0.098,-1.389 -0.036,-0.718 -0.084,-1.429 -0.112,-2.153 0.028,-0.047 0,-0.125 0.024,-0.184 0.004,-0.106 0.047,-0.197 0.121,-0.265 0.151,-0.103 0.357,-0.067 0.517,-0.017 0.384,0.151 0.771,0.303 1.13,0.518 0.003,0.006 0.029,0.028 0.029,0.042 0.003,1.17 -0.029,2.344 0.179,3.462 0.055,0.379 0.395,0.75 0.774,0.818 0.484,0.117 1.002,0.068 1.353,-0.266 0.209,-0.203 0.258,-0.468 0.294,-0.735 0,-1.126 -0.085,-2.238 -0.065,-3.373 0.006,-0.184 0.051,-0.375 0.215,-0.476 0.216,-0.099 0.451,0.018 0.658,0.074 0.271,0.126 0.568,0.204 0.801,0.402 -0.174,1.053 -0.282,2.255 0,3.289 0.199,0.986 0.953,1.937 1.878,2.397 0.73,0.392 1.747,0.417 2.528,0.1 0.377,-0.134 0.726,-0.341 1.062,-0.593 0.03,-0.01 0.06,-0.01 0.084,0 1.385,0.667 3.123,1.387 4.707,0.667 C 1.955,3.957 2.847,2.664 2.866,1.279 2.872,0.92 2.817,0.6 2.774,0.261"
         style="fill:#000000;fill-opacity:1;fill-rule:nonzero;stroke:none"
         id="path3841"
         inkscape:connector-curvature="0" />
    </g>
    <g
       id="g3843"
       transform="matrix(19.071271,0,0,-19.071271,1080.4655,-105.28142)"
       style="fill:#000000">
      <path
         d="m 0,0 c -0.473,-0.284 -1.191,-0.333 -1.678,-0.057 -0.465,0.252 -0.817,0.727 -0.799,1.26 -0.018,0.544 0.344,1.019 0.799,1.269 0.537,0.275 1.309,0.285 1.795,-0.11 C 0.6,2.019 0.836,1.42 0.67,0.835 0.568,0.495 0.311,0.195 0,0"
         style="fill:#000000;fill-opacity:1;fill-rule:nonzero;stroke:none"
         id="path3845"
         inkscape:connector-curvature="0" />
    </g>
    <g
       id="g3847"
       transform="matrix(19.071271,0,0,-19.071271,547.81064,-123.62617)"
       style="fill:#000000">
      <path
         d="M 0,0 C -0.392,-0.269 -0.95,-0.262 -1.336,0.007 -1.65,0.241 -1.934,0.587 -2.303,0.728 -3.1,1.118 -4.077,0.827 -4.865,0.608 -5.508,0.417 -6.125,0.073 -6.62,-0.426 -6.75,-0.587 -6.866,-0.76 -6.801,-0.973 c 0.051,-0.213 0.281,-0.322 0.451,-0.422 0.315,-0.181 0.661,-0.297 1.001,-0.437 0.892,-0.345 1.81,-0.667 2.703,-1.014 0.72,-0.349 1.496,-0.633 2.031,-1.311 0.433,-0.579 0.615,-1.318 0.465,-2.079 -0.139,-1.351 -1.276,-2.525 -2.432,-3.178 -0.838,-0.527 -1.797,-0.768 -2.816,-0.87 -0.967,-0.038 -1.927,0.08 -2.778,0.39 -0.668,0.261 -1.353,0.794 -1.687,1.463 -0.293,0.584 -0.424,1.41 -0.057,2.003 0.356,0.658 1.076,0.963 1.792,0.884 0.368,-0.058 0.744,-0.272 0.886,-0.634 0.198,-0.348 -0.016,-0.843 0.185,-1.182 0.355,-0.663 1.161,-0.621 1.827,-0.58 0.966,0.169 1.943,0.643 2.453,1.565 0.118,0.222 0.191,0.543 0.022,0.773 -0.341,0.402 -0.838,0.498 -1.275,0.702 -1.109,0.381 -2.21,0.804 -3.314,1.195 -0.994,0.363 -2.297,1.035 -2.427,2.25 -0.2,1.289 0.601,2.375 1.643,3.041 1.337,0.878 2.814,1.426 4.423,1.643 1.377,0.167 2.826,0.016 3.863,-0.864 C 0.627,1.943 0.811,1.312 0.611,0.708 0.512,0.422 0.269,0.164 0,0"
         style="fill:#000000;fill-opacity:1;fill-rule:nonzero;stroke:none"
         id="path3849"
         inkscape:connector-curvature="0" />
    </g>
  </g>
</svg>
